Coordinates
version=1
nRows=8
nColumns=40
inDegrees=yes

Units are S.I. units (second, meters, Newtons, ...)
Angles are in degrees.

endheader
time	pelvis_tilt	pelvis_list	pelvis_rotation	pelvis_tx	pelvis_ty	pelvis_tz	hip_flexion_r	hip_adduction_r	hip_rotation_r	knee_angle_r	knee_angle_r_beta	ankle_angle_r	subtalar_angle_r	mtp_angle_r	hip_flexion_l	hip_adduction_l	hip_rotation_l	knee_angle_l	knee_angle_l_beta	ankle_angle_l	subtalar_angle_l	mtp_angle_l	lumbar_extension	lumbar_bending	lumbar_rotation	arm_flex_r	arm_add_r	arm_rot_r	elbow_flex_r	pro_sup_r	wrist_flex_r	wrist_dev_r	arm_flex_l	arm_add_l	arm_rot_l	elbow_flex_l	pro_sup_l	wrist_flex_l	wrist_dev_l
      5.52500000	     -3.15384305	     -2.09332489	     -6.36924733	      1.02881354	      0.91957263	      0.44259635	     29.82843365	     -3.03829577	    -15.05065517	     13.90237424	     13.90237424	      2.74928581	      6.80367017	     11.17254730	     -4.22009169	     -0.39288534	    -15.70629015	      9.26901359	      9.26901359	     17.25347061	     -3.86764316	     -9.25507220	    -10.49469055	      4.41268482	      0.31084479	    -17.11030125	    -13.32438677	    -17.68105111	     20.80083707	     47.78385531	      0.00000000	      0.00000000	     26.88049963	    -22.88461523	     -4.23878388	     72.13994257	     47.56895699	      0.00000000	      0.00000000
      5.53635714	     -3.13906920	     -2.07716542	     -6.19970755	      1.03047206	      0.91753247	      0.44403089	     29.55028489	     -2.83893617	    -15.43533432	     13.36972069	     13.36972069	      3.09387265	      7.24104617	     11.52822756	     -4.86898663	     -0.50262097	    -15.82068573	      9.59470939	      9.59470939	     18.31400434	     -3.11616765	     -8.50736811	    -10.34348582	      4.37807470	      0.04296512	    -18.96989910	    -13.36234647	    -18.24812547	     22.13267939	     47.72005536	      0.00000000	      0.00000000	     26.70549539	    -23.23333439	     -4.79197711	     75.26732810	     47.67378644	      0.00000000	      0.00000000
      5.54771429	     -3.14788354	     -2.15485447	     -5.98443615	      1.03216139	      0.91556282	      0.44559023	     29.23608157	     -2.55217442	    -15.53265950	     13.12895880	     13.12895880	      3.09062738	      7.17509601	     11.18082098	     -5.45331473	     -0.72415730	    -15.61456526	      9.96504206	      9.96504206	     18.98766946	     -3.01223404	     -8.38250867	    -10.11649513	      4.44377971	      0.23058857	    -20.43362357	    -13.30209504	    -18.30421294	     21.88340657	     47.71038477	      0.00000000	      0.00000000	     27.34650780	    -22.91712974	     -4.99730781	     76.81535559	     47.72350982	      0.00000000	      0.00000000
      5.55907143	     -3.15528611	     -2.27459937	     -5.72019694	      1.03402087	      0.91365099	      0.44736052	     28.89843802	     -2.23117916	    -15.31596603	     13.16546892	     13.16546892	      2.19386117	      6.54268630	      8.32372433	     -5.87265892	     -1.14343124	    -15.85652725	     10.78629258	     10.78629258	     20.36329955	     -1.93157327	     -7.04148405	     -9.90799576	      4.53796322	     -0.03853719	    -21.99628010	    -13.26521250	    -18.48359221	     23.14649537	     47.60638624	      0.00000000	      0.00000000	     27.14483807	    -23.11536341	     -5.46303782	     79.44789507	     47.81923226	      0.00000000	      0.00000000
      5.57042857	     -3.23131071	     -2.42349628	     -5.45429169	      1.03585099	      0.91185240	      0.44923566	     28.79904185	     -1.97234944	    -15.06942045	     13.83417106	     13.83417106	      1.85932002	      5.90984628	      7.21746105	     -6.24965339	     -1.54641755	    -15.60222822	     11.44535889	     11.44535889	     21.00462928	     -1.90844258	     -6.85735913	     -9.60866586	      4.66679380	      0.18556281	    -23.11937996	    -13.08335662	    -18.40545583	     22.84230152	     47.58840888	      0.00000000	      0.00000000	     27.64988805	    -22.63510510	     -5.60777234	     80.76175395	     47.86136506	      0.00000000	      0.00000000
      5.58178571	     -3.21519793	     -2.67097835	     -5.15219467	      1.03787439	      0.91035886	      0.45137861	     28.36986616	     -1.50789204	    -14.36733287	     14.16754676	     14.16754676	     -0.03133618	      4.32818792	      2.23610153	     -6.58478281	     -2.21881524	    -15.93556764	     12.52865783	     12.52865783	     22.36565606	     -0.76132782	     -5.40680844	     -9.44302670	      4.87244815	     -0.10778604	    -24.03064976	    -13.02881198	    -18.21325083	     23.56688679	     47.47915709	      0.00000000	      0.00000000	     27.28473785	    -22.72763907	     -6.05983077	     82.97727375	     47.95265515	      0.00000000	      0.00000000
      5.59314286	     -3.28526371	     -2.86088065	     -4.85337968	      1.03982851	      0.90906707	      0.45349207	     28.40640902	     -1.30636899	    -14.00369473	     15.46372100	     15.46372100	     -0.33185958	      3.47460279	      1.27245732	     -6.88323720	     -2.72514107	    -15.60454015	     13.33092286	     13.33092286	     22.76091292	     -0.88741731	     -5.37115332	     -9.13661057	      5.02835056	      0.11449196	    -24.69243000	    -12.79657544	    -18.08925761	     23.23167763	     47.46646077	      0.00000000	      0.00000000	     27.54474921	    -22.17545849	     -6.12864319	     83.97956457	     47.98210618	      0.00000000	      0.00000000
      5.60450000	     -3.36053397	     -3.12439722	     -4.55481005	      1.04180721	      0.90808742	      0.45589774	     28.40148309	     -0.96366302	    -13.36117442	     16.72081810	     16.72081810	     -0.81875993	      2.07434134	     -0.04443498	     -7.06001567	     -3.40298403	    -15.43583623	     14.38693101	     14.38693101	     23.16707688	     -0.83857827	     -5.27494255	     -8.86334844	      5.23477029	      0.23220698	    -25.07593450	    -12.53034583	    -17.97141172	     23.05806946	     47.44837086	      0.00000000	      0.00000000	     27.46461829	    -21.72374724	     -6.21792772	     85.25202351	     48.01718605	      0.00000000	      0.00000000
